<svg width="122" height="36" fill="none" xmlns="http://www.w3.org/2000/svg"><rect x=".961" width="120.962" height="36" rx="18" fill="#000"/><rect x="1.461" y=".5" width="119.962" height="35" rx="17.5" stroke="#979797" stroke-opacity=".1"/><path fill-rule="evenodd" clip-rule="evenodd" d="M52.762 25.798h1.682L50.76 15.645h-1.703l-3.683 10.153H47l.94-2.695h3.887l.934 2.695zm-2.934-8.308h.12l1.478 4.292h-3.082l1.484-4.292zm9.077.517c-1.047 0-1.951.52-2.418 1.393h-.113v-1.266h-1.463v10.145h1.52v-3.645h.12c.403.81 1.272 1.288 2.368 1.288 1.944 0 3.18-1.527 3.18-3.961s-1.236-3.954-3.194-3.954zm-.431 6.56c-1.273 0-2.071-.999-2.071-2.596 0-1.604.798-2.603 2.078-2.603 1.286 0 2.057.978 2.057 2.596 0 1.625-.77 2.603-2.064 2.603zm8.313-6.56c-1.047 0-1.951.52-2.418 1.393h-.113v-1.266h-1.463v10.145h1.52v-3.645h.12c.403.81 1.272 1.288 2.368 1.288 1.944 0 3.18-1.527 3.18-3.961s-1.236-3.954-3.194-3.954zm-.432 6.56c-1.272 0-2.071-.999-2.071-2.596 0-1.604.799-2.603 2.078-2.603 1.287 0 2.057.978 2.057 2.596 0 1.625-.77 2.603-2.064 2.603zm6.844-1.499c.113 1.816 1.633 2.976 3.895 2.976 2.417 0 3.93-1.217 3.93-3.159 0-1.526-.863-2.37-2.955-2.856l-1.124-.274c-1.329-.31-1.866-.725-1.866-1.45 0-.915.834-1.512 2.085-1.512 1.188 0 2.008.583 2.156 1.52h1.541c-.092-1.71-1.605-2.914-3.676-2.914-2.226 0-3.71 1.204-3.71 3.012 0 1.491.84 2.378 2.685 2.807l1.315.317c1.35.316 1.944.78 1.944 1.554 0 .901-.933 1.555-2.205 1.555-1.365 0-2.312-.612-2.446-1.576h-1.57zm9.132-6.788v1.892h-1.265v1.274h1.265v4.327c0 1.477.672 2.068 2.361 2.068.297 0 .573-.035.813-.077v-1.26c-.212.022-.332.036-.565.036-.757 0-1.089-.352-1.089-1.154v-3.94h1.725v-1.274H83.85V16.28h-1.52zm7.013 8.321c-1.322 0-2.064-.964-2.064-2.638 0-1.66.742-2.632 2.064-2.632 1.314 0 2.064.971 2.064 2.632 0 1.667-.75 2.638-2.064 2.638zm0 1.344c2.248 0 3.626-1.499 3.626-3.983 0-2.47-1.385-3.975-3.626-3.975-2.247 0-3.633 1.506-3.633 3.976 0 2.483 1.378 3.982 3.633 3.982zm4.319-.15h1.52v-4.524c0-1.076.813-1.8 1.958-1.8.254 0 .72.049.84.09v-1.49a3.196 3.196 0 00-.67-.064c-1.004 0-1.853.549-2.072 1.301h-.113v-1.174h-1.463v7.661zm7.74-6.52c1.124 0 1.859.782 1.894 1.985H99.41c.085-1.196.869-1.984 1.993-1.984zm1.888 4.453c-.283.598-.912.93-1.831.93-1.216 0-2-.852-2.05-2.196v-.084h5.436v-.528c0-2.406-1.294-3.863-3.435-3.863-2.17 0-3.549 1.555-3.549 4.004 0 2.448 1.35 3.954 3.556 3.954 1.76 0 2.99-.845 3.336-2.217h-1.463zM46.8 7.72v4.834h1.753c1.447 0 2.286-.888 2.286-2.433 0-1.52-.845-2.402-2.286-2.402h-1.754zm.754.681h.915c1.007 0 1.603.637 1.603 1.729 0 1.109-.586 1.739-1.603 1.739h-.915V8.4zm5.937 3.583c-.63 0-.983-.46-.983-1.257 0-.79.354-1.253.983-1.253.626 0 .983.463.983 1.253 0 .794-.357 1.257-.983 1.257zm0 .637c1.07 0 1.727-.714 1.727-1.896 0-1.176-.66-1.893-1.726-1.893-1.07 0-1.73.717-1.73 1.893 0 1.182.656 1.896 1.73 1.896zm7.4-3.717h-.724l-.653 2.784h-.057l-.754-2.784h-.693l-.754 2.784h-.054l-.656-2.784h-.734l1.01 3.649h.743l.755-2.687h.057l.757 2.687h.75l1.007-3.649zm.92 3.646h.724v-2.134c0-.57.356-.924.939-.924.538 0 .8.291.8.877v2.181H65v-2.362c0-.867-.462-1.356-1.28-1.356-.552 0-.98.244-1.157.65h-.054v-.58h-.697v3.648zm4.41.001h.723V7.48h-.724v5.072zm3.528-.567c-.63 0-.983-.46-.983-1.257 0-.79.354-1.253.983-1.253.626 0 .983.463.983 1.253 0 .794-.357 1.257-.983 1.257zm0 .637c1.07 0 1.727-.714 1.727-1.896 0-1.176-.66-1.893-1.727-1.893-1.07 0-1.73.717-1.73 1.893 0 1.182.656 1.896 1.73 1.896zm3.966-.616c-.394 0-.68-.191-.68-.52 0-.321.229-.492.734-.525l.895-.057v.304c0 .453-.404.798-.95.798zm-.186.606c.482 0 .882-.208 1.101-.573h.057v.512h.697v-2.492c0-.77-.518-1.226-1.437-1.226-.832 0-1.424.402-1.498 1.028h.7c.08-.258.36-.405.764-.405.495 0 .75.217.75.603v.315l-.992.057c-.872.053-1.364.432-1.364 1.088 0 .667.516 1.093 1.222 1.093zm4.397 0c.505 0 .932-.237 1.151-.636h.058v.576h.693V7.48h-.724v2.003h-.054c-.198-.402-.622-.64-1.124-.64-.926 0-1.521.731-1.521 1.883 0 1.156.589 1.887 1.521 1.887zm.205-3.123c.606 0 .986.48.986 1.24 0 .764-.377 1.236-.986 1.236-.613 0-.98-.466-.98-1.24 0-.767.37-1.236.98-1.236zm6.559 2.496c-.63 0-.983-.46-.983-1.257 0-.79.353-1.253.983-1.253.626 0 .983.463.983 1.253 0 .794-.357 1.257-.983 1.257zm0 .637c1.07 0 1.726-.714 1.726-1.896 0-1.176-.66-1.893-1.727-1.893-1.07 0-1.73.717-1.73 1.893 0 1.182.656 1.896 1.73 1.896zm2.767-.07h.724v-2.135c0-.57.357-.924.94-.924.538 0 .8.291.8.877v2.181h.724v-2.362c0-.867-.461-1.356-1.279-1.356-.552 0-.98.244-1.158.65h-.054v-.58h-.697v3.648zm6.69-4.53v.901h-.603v.607h.602v2.06c0 .704.32.985 1.125.985.14 0 .272-.017.387-.037v-.6c-.101.01-.159.017-.27.017-.36 0-.518-.167-.518-.55V9.53h.821v-.607h-.821v-.901h-.724zm2.575 4.53h.723v-2.13c0-.553.367-.925.96-.925.545 0 .817.295.817.878v2.177h.724v-2.355c0-.868-.471-1.36-1.296-1.36-.552 0-.976.244-1.154.653h-.058V7.48h-.716v5.072zm5.921-3.107c.536 0 .886.371.902.944h-1.851c.041-.57.414-.944.949-.944zm.899 2.121c-.135.285-.434.443-.872.443-.579 0-.952-.406-.976-1.046v-.04h2.589v-.251c0-1.146-.616-1.84-1.636-1.84-1.034 0-1.69.741-1.69 1.907s.643 1.883 1.693 1.883c.838 0 1.424-.402 1.589-1.056h-.697zm-71.678 6.717c-.025-2.822 2.322-4.195 2.429-4.259-1.33-1.929-3.39-2.192-4.113-2.213-1.73-.181-3.409 1.03-4.29 1.03-.9 0-2.256-1.013-3.72-.983-1.882.029-3.643 1.114-4.609 2.798-1.993 3.435-.506 8.483 1.403 11.26.956 1.36 2.072 2.877 3.533 2.824 1.43-.058 1.963-.907 3.688-.907 1.71 0 2.21.907 3.701.872 1.534-.023 2.5-1.365 3.422-2.738 1.104-1.557 1.547-3.094 1.565-3.172-.035-.012-2.979-1.13-3.009-4.512zM29.05 9.983c.768-.957 1.294-2.259 1.148-3.58-1.112.049-2.504.766-3.305 1.702-.71.825-1.343 2.177-1.179 3.448 1.25.093 2.533-.628 3.336-1.57z" fill="#fff"/></svg>